<?xml version="1.0" encoding="UTF-8"?>
<svg width="308px" height="561px" viewBox="0 0 308 561" version="1.1" xmlns="http://www.w3.org/2000/svg" xmlns:xlink="http://www.w3.org/1999/xlink">
    <!-- Generator: Sketch 63.1 (92452) - https://sketch.com -->
    <title>logo-imersa-o-react-nextjs</title>
    <desc>Created with Sketch.</desc>
    <g id="Page-1" stroke="none" stroke-width="1" fill="none" fill-rule="evenodd">
        <g id="Imersao-react-2-vers-03" transform="translate(-883.000000, -163.000000)" fill-rule="nonzero">
            <g id="logo-imersa-o-react-nextjs" transform="translate(883.000000, 163.000000)">
                <g id="Group">
                    <path d="M105.563128,0.344134078 L105.218994,0.344134078 C92.572067,0.516201117 82.3340782,10.926257 82.3340782,23.6592179 L82.3340782,30.972067 L82.2480447,31.0581006 C60.9977654,43.6189944 43.4469274,61.427933 31.1441341,82.8502793 L30.627933,83.7106145 L23.9173184,83.7106145 C11.098324,83.7106145 0.602234637,94.2067039 0.602234637,107.025698 L0.602234637,199.597765 L0.602234637,199.941899 C0.860335196,212.67486 11.1843575,222.912849 23.9173184,222.912849 L30.5418994,222.912849 L30.7139665,223.256983 C35.1877095,231.086034 40.3497207,238.484916 46.1139665,245.195531 L46.5441341,245.711732 L46.5441341,256.637989 C46.5441341,267.478212 55.3195531,276.253631 66.1597765,276.253631 L239.775419,276.253631 C250.443575,276.081564 259.046927,267.392179 259.046927,256.637989 L259.046927,248.550838 L259.477095,248.12067 C266.187709,240.635754 272.124022,232.290503 277.286034,223.256983 L277.458101,222.912849 L284.082682,222.912849 C296.901676,222.912849 307.397765,212.41676 307.397765,199.597765 L307.397765,106.681564 C307.311732,94.0346369 296.987709,83.7106145 284.168715,83.7106145 L277.458101,83.7106145 L277.372067,83.624581 C264.208939,60.3955307 245.109497,41.4681564 221.880447,28.7351955 L221.278212,28.3910615 L221.278212,23.6592179 C221.278212,10.8402235 210.868156,0.344134078 197.963128,0.344134078 C198.049162,0.344134078 105.563128,0.344134078 105.563128,0.344134078 Z M105.563128,2.92513966 L198.135196,2.92513966 C209.577654,2.92513966 218.869274,12.2167598 218.869274,23.6592179 L218.869274,29.9396648 L220.073743,30.627933 C243.302793,43.1027933 262.316201,61.8581006 275.307263,84.9150838 L276.081564,86.2916201 L284.254749,86.2916201 C295.611173,86.2916201 304.81676,95.4111732 304.902793,106.681564 L304.902793,199.597765 C304.902793,211.040223 295.611173,220.331844 284.168715,220.331844 L275.995531,220.331844 L275.651397,221.020112 C270.231285,230.569832 264.036872,239.345251 256.810056,247.260335 L256.465922,247.604469 L256.465922,256.724022 C256.465922,266.101676 248.808939,273.758659 239.431285,273.758659 L66.1597765,273.758659 C56.7821229,273.758659 49.1251397,266.101676 49.1251397,256.724022 L49.1251397,244.851397 L48.7810056,244.507263 C42.5865922,237.36648 37.0804469,229.53743 32.3486034,221.106145 L32.0044693,220.417877 L23.8312849,220.417877 C12.3888268,220.417877 3.0972067,211.126257 3.0972067,199.683799 L3.0972067,107.025698 C3.0972067,95.5832402 12.3888268,86.2916201 23.8312849,86.2916201 L32.0044693,86.2916201 L32.3486034,85.603352 C44.5653631,63.8368715 62.1162011,45.9418994 83.452514,33.2949721 L84.8290503,32.5206704 L84.8290503,23.6592179 C84.8290503,12.2167598 94.1206704,2.92513966 105.563128,2.92513966 Z" id="Shape" fill="#979797"></path>
                    <g transform="translate(81.867777, 88.106927)" fill="#15D1EA">
                        <circle id="Oval" transform="translate(72.697652, 65.294362) rotate(-3.674164) translate(-72.697652, -65.294362) " cx="72.6976524" cy="65.2943616" r="12.9904807"></circle>
                        <path d="M72.698324,35.7899441 C32.7787709,35.7899441 0.430167598,49.0391061 0.430167598,65.2994413 C0.430167598,81.5597765 32.7787709,94.8089385 72.698324,94.8089385 C112.617877,94.8089385 144.96648,81.5597765 144.96648,65.2994413 C144.96648,48.9530726 112.617877,35.7899441 72.698324,35.7899441 L72.698324,35.7899441 Z M121.47933,80.5273743 C108.574302,85.775419 91.1955307,88.7865922 72.698324,88.7865922 C54.2011173,88.7865922 36.8223464,85.8614525 23.9173184,80.5273743 C12.9050279,76.1396648 6.45251397,70.375419 6.45251397,65.2994413 C6.45251397,60.2234637 12.9910615,54.4592179 23.9173184,49.9854749 C36.8223464,44.7374302 54.2011173,41.8122905 72.698324,41.8122905 C91.1955307,41.8122905 108.574302,44.7374302 121.47933,49.9854749 C132.405587,54.4592179 138.944134,60.1374302 138.944134,65.2994413 C138.944134,70.375419 132.405587,76.0536313 121.47933,80.5273743 L121.47933,80.5273743 Z" id="Shape"></path>
                        <path d="M47.1463687,50.501676 C27.1865922,85.0871508 22.4547486,119.758659 36.5642458,127.931844 C50.673743,136.018994 78.2905028,114.596648 98.2502793,80.0111732 C118.210056,45.4256983 122.941899,10.7541899 108.832402,2.58100559 C94.722905,-5.59217877 67.1061453,15.9162011 47.1463687,50.501676 L47.1463687,50.501676 Z M110.294972,30.5418994 C108.402235,44.3932961 102.207821,60.9117318 93.0022346,77 C83.796648,93.0882682 72.526257,106.681564 61.5139665,115.284916 C52.2223464,122.511732 44.049162,125.350838 39.575419,122.769832 C35.101676,120.188827 33.4670391,111.757542 35.101676,100.056983 C36.9944134,86.2055866 43.1888268,69.6871508 52.3944134,53.5988827 C61.6,37.5106145 72.8703911,23.9173184 83.8826816,15.3139665 C93.1743017,8.08715084 101.347486,5.24804469 105.821229,7.82905028 C110.294972,10.3240223 111.929609,18.8413408 110.294972,30.5418994 L110.294972,30.5418994 Z" id="Shape"></path>
                        <path d="M36.5642458,2.58100559 C22.4547486,10.6681564 27.1865922,45.4256983 47.1463687,80.0111732 C67.1061453,114.596648 94.722905,136.018994 108.832402,127.931844 C122.941899,119.844693 118.210056,85.0871508 98.2502793,50.501676 C78.2044693,15.9162011 50.673743,-5.59217877 36.5642458,2.58100559 Z M39.575419,7.82905028 C44.049162,5.24804469 52.2223464,8.08715084 61.5139665,15.3139665 C72.526257,23.9173184 83.796648,37.5106145 93.0022346,53.5988827 C102.207821,69.6871508 108.402235,86.2055866 110.294972,100.056983 C111.929609,111.757542 110.208939,120.27486 105.821229,122.855866 C101.347486,125.436872 93.1743017,122.597765 83.8826816,115.37095 C72.8703911,106.767598 61.6,93.1743017 52.3944134,77.0860335 C43.1027933,60.9977654 36.9944134,44.4793296 35.101676,30.5418994 C33.4670391,18.8413408 35.101676,10.3240223 39.575419,7.82905028 Z" id="Shape"></path>
                    </g>
                    <g transform="translate(9.463687, 291.653631)" id="Shape">
                        <path d="M34.3273743,52.4804469 C40.8659218,52.4804469 45.5977654,54.0290503 48.2648045,57.2122905 L48.4368715,57.3843575 C50.673743,60.0513966 51.8782123,64.5251397 52.0502793,70.6335196 L52.0502793,70.8916201 C52.0502793,71.4938547 52.0502793,72.8703911 52.0502793,75.1072626 L52.0502793,82.5921788 L52.0502793,84.3988827 C52.0502793,88.4424581 50.9318436,91.7117318 48.6949721,94.550838 C47.0603352,96.6156425 44.9094972,98.1642458 42.2424581,99.2826816 L41.8122905,99.4547486 L41.5541899,99.5407821 L56.7821229,129.480447 C57.126257,130.082682 57.2122905,130.77095 56.8681564,131.459218 L56.7821229,131.631285 L56.6960894,131.803352 C56.2659218,132.49162 55.6636872,132.835754 54.975419,132.921788 L54.803352,132.921788 L41.6402235,132.921788 C40.7798883,132.921788 40.0916201,132.49162 39.6614525,131.803352 L39.575419,131.631285 L24.6916201,102.724022 L24.6916201,130.512849 C24.6916201,131.803352 23.9173184,132.663687 22.7128492,132.835754 L22.5407821,132.835754 L22.3687151,132.835754 L9.46368715,132.835754 C8.08715084,132.835754 7.22681564,132.061453 7.14078212,130.684916 L7.14078212,130.512849 L7.14078212,104.61676 L7.0547486,104.788827 L7.0547486,97.6480447 L7.0547486,97.5620112 C5.85027933,96.0134078 4.30167598,94.8949721 2.40893855,94.1206704 L2.06480447,94.0346369 L1.72067039,93.9486034 C1.11843575,93.7765363 0.774301676,93.2603352 0.774301676,92.6581006 C0.774301676,92.0558659 1.03240223,91.7117318 1.46256983,91.4536313 L1.54860335,91.3675978 L1.63463687,91.2815642 C3.87150838,90.5932961 5.67821229,89.3888268 7.0547486,87.6681564 L7.0547486,87.5821229 L7.0547486,54.803352 C7.0547486,54.2011173 7.22681564,53.7709497 7.57094972,53.3407821 L7.65698324,53.1687151 L7.74301676,52.996648 C8.17318436,52.5664804 8.68938547,52.3083799 9.20558659,52.3083799 L9.37765363,52.3083799 L34.3273743,52.4804469 L34.3273743,52.4804469 Z M34.3273743,54.2011173 L9.46368715,54.2011173 C9.29162011,54.2011173 9.20558659,54.2871508 9.03351955,54.4592179 C8.86145251,54.6312849 8.86145251,54.7173184 8.86145251,54.8893855 L8.86145251,54.975419 L8.86145251,88.3564246 L8.68938547,88.6145251 C7.39888268,90.4212291 5.67821229,91.7117318 3.61340782,92.6581006 L3.18324022,92.8301676 L3.26927374,92.8301676 C5.24804469,93.6044693 6.96871508,94.8089385 8.25921788,96.4435754 L8.51731844,96.701676 L8.68938547,96.9597765 L8.86145251,97.2178771 L8.86145251,98.5944134 L8.86145251,98.6804469 L8.86145251,98.852514 L8.86145251,130.598883 C8.86145251,131.02905 8.94748603,131.201117 9.37765363,131.201117 L9.46368715,131.201117 L22.4547486,131.201117 C22.8849162,131.201117 23.0569832,131.115084 23.0569832,130.684916 L23.0569832,130.598883 L23.1430168,99.3687151 L24.9497207,99.3687151 L41.2100559,131.02905 C41.2960894,131.201117 41.3821229,131.287151 41.6402235,131.287151 L41.726257,131.287151 L54.8893855,131.287151 C55.0614525,131.287151 55.2335196,131.201117 55.3195531,131.02905 C55.4916201,130.77095 55.4916201,130.598883 55.4055866,130.426816 L55.4055866,130.340782 L39.2312849,98.5944134 L40.1776536,98.2502793 C43.1888268,97.3039106 45.5977654,95.7553073 47.4044693,93.5184358 C49.2972067,91.1094972 50.3296089,88.2703911 50.3296089,84.8290503 L50.3296089,84.4849162 L50.3296089,82.5921788 L50.3296089,76.1396648 C50.3296089,72.9564246 50.3296089,71.1497207 50.3296089,70.7195531 C50.1575419,65.0413408 49.2111732,60.9977654 47.3184358,58.5888268 L47.1463687,58.4167598 C44.9094972,55.6636872 40.7798883,54.2011173 34.8435754,54.1150838 L34.3273743,54.2011173 L34.3273743,54.2011173 Z M31.7463687,67.1061453 C33.3810056,67.1061453 34.5854749,67.4502793 35.273743,68.224581 C35.8759777,68.8268156 36.1340782,69.7731844 36.2201117,71.0636872 L36.2201117,71.3217877 L36.1340782,82.5921788 C36.1340782,83.9687151 35.7899441,85.1731844 35.101676,85.8614525 C34.4134078,86.5497207 33.3810056,86.8938547 32.0044693,86.8938547 L31.7463687,86.8938547 L22.9709497,86.8938547 L22.9709497,67.1061453 C22.9709497,67.1061453 31.7463687,67.1061453 31.7463687,67.1061453 Z M31.7463687,68.8268156 L24.6916201,68.8268156 L24.6916201,85.1731844 L31.6603352,85.1731844 C32.7787709,85.1731844 33.4670391,85.0011173 33.8111732,84.6569832 C34.1553073,84.3128492 34.3273743,83.7106145 34.3273743,82.8502793 L34.4134078,71.3217877 C34.4134078,70.2893855 34.2413408,69.6871508 33.9832402,69.4290503 C33.7251397,69.0849162 32.950838,68.9128492 31.9184358,68.8268156 C32.0044693,68.8268156 31.7463687,68.8268156 31.7463687,68.8268156 Z M75.7094972,52.652514 L75.5374302,52.652514 C74.1608939,52.7385475 73.3865922,53.5988827 73.3865922,54.975419 L73.3865922,88.7005587 L73.5586592,88.5284916 C72.3541899,90.3351955 70.547486,91.6256983 68.3106145,92.4 L67.9664804,92.4860335 C67.4502793,92.6581006 67.0201117,93.0882682 67.0201117,93.7765363 C67.0201117,94.3787709 67.4502793,94.8089385 67.9664804,94.9810056 L68.3106145,95.0670391 C70.4614525,95.8413408 72.1821229,97.0458101 73.3865922,98.6804469 L73.3865922,98.6804469 L73.3865922,130.512849 C73.3865922,131.975419 74.2469274,132.835754 75.7094972,132.835754 L111.843575,132.835754 C113.306145,132.835754 114.16648,131.975419 114.16648,130.512849 L114.16648,119.328492 L114.16648,119.156425 C114.080447,117.779888 113.220112,117.005587 111.843575,117.005587 L90.9374302,117.005587 L90.9374302,101.605587 L109.692737,101.605587 C111.155307,101.605587 112.015642,100.745251 112.015642,99.2826816 L112.015642,87.926257 L112.015642,87.7541899 C111.929609,86.3776536 111.069274,85.603352 109.692737,85.603352 L90.9374302,85.603352 L90.9374302,68.5687151 L110.294972,68.5687151 C111.757542,68.5687151 112.617877,67.7083799 112.617877,66.2458101 L112.617877,54.8893855 C112.617877,53.4268156 111.757542,52.5664804 110.294972,52.5664804 L75.7094972,52.652514 L75.7094972,52.652514 Z M75.7094972,54.3731844 L110.294972,54.3731844 C110.811173,54.3731844 110.897207,54.4592179 110.897207,54.8893855 L110.897207,66.3318436 C110.897207,66.8480447 110.811173,66.9340782 110.294972,66.9340782 L89.2167598,66.9340782 L89.2167598,87.4100559 L109.692737,87.4100559 C110.208939,87.4100559 110.294972,87.4960894 110.294972,88.0122905 L110.294972,99.3687151 C110.294972,99.8849162 110.208939,99.9709497 109.692737,99.9709497 L89.2167598,99.9709497 L89.2167598,118.812291 L111.843575,118.812291 C112.359777,118.812291 112.44581,118.898324 112.44581,119.414525 L112.44581,130.598883 C112.44581,131.115084 112.359777,131.201117 111.929609,131.201117 L75.7094972,131.201117 C75.1932961,131.201117 75.1072626,131.115084 75.1072626,130.684916 L75.1072626,98.2502793 L74.9351955,97.9921788 L74.7631285,97.7340782 C73.5586592,96.0134078 71.8379888,94.722905 69.7731844,93.8625698 L69.5150838,93.7765363 L69.7731844,93.6905028 C72.0100559,92.7441341 73.7307263,91.3675978 74.9351955,89.5608939 L75.1072626,89.3027933 L75.1072626,54.975419 C75.1072626,54.5452514 75.1932961,54.3731844 75.7094972,54.3731844 L75.7094972,54.3731844 Z M159.162011,52.7385475 C160.280447,52.7385475 161.140782,53.3407821 161.398883,54.4592179 L161.484916,54.6312849 L170.260335,102.724022 L171.981006,105.649162 L172.755307,105.907263 L173.357542,106.07933 C174.131844,106.33743 174.992179,106.595531 175.938547,106.853631 C176.540782,107.025698 176.884916,107.541899 176.884916,108.144134 C176.884916,108.746369 176.626816,109.090503 176.196648,109.348603 L176.110615,109.434637 L176.024581,109.52067 C174.820112,109.864804 173.701676,110.553073 172.497207,111.413408 L172.153073,111.671508 L171.894972,111.843575 L175.250279,130.254749 L175.250279,130.340782 C175.422346,130.943017 175.250279,131.459218 174.906145,131.975419 L174.820112,132.061453 L174.734078,132.147486 L174.648045,132.23352 C174.303911,132.663687 173.787709,132.835754 173.271508,132.921788 L173.099441,132.921788 L172.927374,132.921788 L160.36648,132.921788 C159.162011,132.921788 158.301676,132.23352 158.129609,131.02905 L158.129609,130.856983 L156.150838,116.059218 L145.912849,116.059218 L143.934078,130.856983 C143.762011,131.975419 143.073743,132.749721 141.955307,132.835754 L141.78324,132.835754 L141.611173,132.835754 L129.050279,132.835754 C128.362011,132.835754 127.84581,132.577654 127.243575,131.975419 C126.813408,131.545251 126.641341,130.943017 126.727374,130.340782 L126.727374,130.168715 L130.082682,111.929609 L129.824581,111.757542 C128.706145,110.811173 127.501676,110.036872 126.297207,109.52067 L125.953073,109.434637 L125.608939,109.348603 C125.006704,109.176536 124.66257,108.832402 124.66257,108.144134 C124.66257,107.541899 124.92067,107.197765 125.350838,106.939665 L125.436872,106.853631 L125.522905,106.767598 C128.448045,105.821229 130.426816,104.358659 131.545251,102.207821 L131.631285,102.035754 C131.631285,101.949721 131.717318,101.777654 131.803352,101.69162 L131.889385,101.605587 L131.975419,101.519553 L140.664804,54.3731844 C140.836872,53.2547486 141.611173,52.652514 142.643575,52.4804469 L142.815642,52.4804469 L142.987709,52.4804469 L159.162011,52.4804469 L159.162011,52.7385475 Z M159.162011,54.4592179 L142.987709,54.4592179 C142.557542,54.4592179 142.471508,54.5452514 142.385475,54.8893855 L133.524022,103.068156 L133.179888,103.15419 L133.179888,103.240223 C132.061453,105.391061 130.340782,106.939665 127.84581,108.058101 L127.501676,108.230168 L127.243575,108.316201 L127.501676,108.402235 C128.706145,108.918436 129.910615,109.692737 131.02905,110.639106 L131.373184,110.897207 L131.631285,111.155307 L131.975419,111.499441 L128.448045,130.598883 C128.448045,130.77095 128.448045,130.943017 128.534078,131.02905 C128.706145,131.201117 128.792179,131.287151 128.964246,131.287151 L129.050279,131.287151 L141.611173,131.287151 C141.955307,131.287151 142.127374,131.201117 142.213408,130.856983 L142.213408,130.77095 L144.450279,114.510615 L157.613408,114.510615 L159.850279,130.77095 C159.936313,131.201117 160.022346,131.287151 160.36648,131.287151 L160.452514,131.287151 L173.013408,131.287151 C173.185475,131.287151 173.357542,131.287151 173.443575,131.201117 L173.529609,131.02905 C173.615642,130.943017 173.615642,130.943017 173.615642,130.856983 L173.615642,130.77095 L173.615642,130.684916 L170.088268,111.241341 L170.432402,110.897207 C171.636872,109.864804 172.841341,109.004469 174.131844,108.402235 L174.475978,108.230168 L173.529609,107.972067 L172.497207,107.627933 L171.550838,107.369832 L171.12067,107.283799 L170.776536,107.197765 L169.916201,105.821229 L168.539665,103.498324 L159.678212,55.0614525 C159.592179,54.7173184 159.506145,54.5452514 159.162011,54.5452514 L159.162011,54.4592179 L159.162011,54.4592179 Z M146.515084,101.863687 L150.988827,73.0424581 L155.548603,101.863687 L146.515084,101.863687 L146.515084,101.863687 Z M150.988827,84.1407821 L148.493855,100.143017 L153.569832,100.143017 L150.988827,84.1407821 Z M214.13743,52.652514 C207.598883,52.652514 202.436872,54.4592179 198.651397,58.0726257 L198.135196,58.5888268 C194.435754,62.3743017 192.543017,67.3642458 192.543017,73.7307263 L192.543017,89.9050279 L192.715084,89.7329609 C191.424581,91.6256983 189.617877,92.9162011 187.208939,93.6044693 L187.122905,93.6905028 C186.606704,93.9486034 186.348603,94.2927374 186.348603,94.8949721 C186.348603,95.4972067 186.778771,95.9273743 187.294972,96.0994413 L187.639106,96.1854749 C189.703911,96.873743 191.338547,98.0782123 192.543017,99.7128492 L192.543017,99.7128492 L192.543017,111.757542 C192.543017,118.210056 194.521788,123.372067 198.393296,127.243575 C202.350838,131.02905 207.598883,132.921788 214.13743,132.921788 C220.503911,132.921788 225.579888,130.943017 229.365363,127.157542 C233.236872,123.372067 235.129609,118.210056 235.129609,111.843575 L235.129609,105.477095 C235.129609,104.100559 234.18324,103.240223 232.806704,103.240223 L220.24581,103.240223 C218.78324,103.240223 217.922905,104.100559 217.922905,105.477095 L217.922905,112.273743 C217.922905,114.510615 217.578771,115.973184 216.976536,116.661453 C216.546369,117.177654 215.6,117.521788 214.13743,117.521788 C212.41676,117.521788 211.298324,117.177654 210.868156,116.661453 L210.782123,116.575419 C210.093855,115.715084 209.749721,114.080447 209.749721,111.671508 L209.663687,100.056983 C210.524022,98.4223464 212.330726,97.2178771 215.169832,96.3575419 L215.341899,96.2715084 C215.858101,96.0134078 216.116201,95.5832402 216.116201,95.0670391 C216.116201,94.3787709 215.686034,93.9486034 215.169832,93.7765363 L214.825698,93.6905028 C212.41676,92.9162011 210.782123,91.7117318 209.749721,90.077095 L209.749721,90.077095 L209.749721,74.3329609 C209.749721,71.8379888 210.179888,70.203352 210.868156,69.4290503 C211.470391,68.7407821 212.502793,68.396648 214.223464,68.396648 C215.427933,68.396648 216.288268,68.9128492 216.890503,69.9452514 L216.976536,70.1173184 C217.492737,71.0636872 217.836872,72.3541899 217.922905,73.9027933 L217.922905,74.0748603 L217.922905,74.0748603 L217.922905,78.5486034 C217.922905,80.0111732 218.78324,80.8715084 220.24581,80.8715084 L232.892737,80.8715084 C234.355307,80.8715084 235.215642,80.0111732 235.215642,78.5486034 L235.215642,75.2793296 C235.215642,68.4826816 233.322905,63.0625698 229.451397,58.9329609 C225.579888,54.7173184 220.417877,52.652514 214.13743,52.652514 Z M214.13743,54.3731844 C219.987709,54.3731844 224.63352,56.2659218 228.160894,60.0513966 C231.688268,63.8368715 233.494972,68.8268156 233.494972,75.1932961 L233.494972,78.4625698 C233.494972,78.8927374 233.408939,79.0648045 232.978771,79.0648045 L220.159777,79.0648045 C219.729609,79.0648045 219.643575,78.8927374 219.643575,78.4625698 L219.643575,75.7094972 L219.729609,75.7094972 L219.729609,74.849162 C219.729609,72.4402235 219.299441,70.6335196 218.439106,69.1709497 L218.267039,68.9128492 C217.32067,67.3642458 215.944134,66.5039106 214.13743,66.5039106 C212.072626,66.5039106 210.524022,67.0201117 209.577654,68.052514 C208.545251,69.1709497 208.02905,71.2357542 208.02905,74.0748603 L208.02905,90.3351955 L208.115084,90.5072626 L208.287151,90.7653631 C209.405587,92.572067 211.040223,93.8625698 213.363128,94.8089385 L213.621229,94.8949721 L213.363128,94.9810056 C210.868156,95.9273743 209.061453,97.3039106 208.115084,99.024581 L208.02905,99.196648 L208.02905,111.413408 C208.02905,114.252514 208.545251,116.317318 209.577654,117.521788 C210.437989,118.55419 211.986592,118.984358 214.13743,118.984358 C216.030168,118.984358 217.406704,118.55419 218.267039,117.521788 C219.213408,116.489385 219.643575,114.596648 219.643575,112.015642 L219.643575,105.218994 C219.643575,104.788827 219.729609,104.702793 220.159777,104.702793 L232.892737,104.702793 C233.408939,104.702793 233.494972,104.788827 233.494972,105.218994 L233.494972,111.585475 C233.494972,117.521788 231.688268,122.253631 228.246927,125.694972 C224.719553,129.222346 220.073743,131.02905 214.223464,131.02905 C208.02905,131.02905 203.211173,129.30838 199.683799,125.867039 C196.156425,122.339665 194.349721,117.607821 194.349721,111.585475 L194.349721,99.024581 L194.177654,98.7664804 L194.005587,98.5083799 C192.801117,96.7877095 191.16648,95.5832402 189.187709,94.722905 L188.929609,94.6368715 L189.187709,94.550838 C191.252514,93.6905028 192.973184,92.3139665 194.177654,90.5072626 L194.349721,90.249162 L194.349721,73.5586592 C194.349721,67.5363128 196.156425,62.8044693 199.683799,59.3631285 C203.039106,56.0938547 207.856983,54.3731844 214.13743,54.3731844 L214.13743,54.3731844 Z M287.093855,52.9106145 L249.153073,52.9106145 C247.690503,52.9106145 246.830168,53.7709497 246.830168,55.2335196 L246.830168,66.5039106 L246.830168,66.6759777 C246.916201,68.052514 247.776536,68.8268156 249.153073,68.8268156 L259.305028,68.8268156 L259.305028,87.7541899 L259.391061,87.5821229 C258.186592,89.5608939 256.293855,91.0234637 253.712849,91.7977654 L253.540782,91.8837989 C253.024581,92.1418994 252.76648,92.4860335 252.76648,93.0882682 C252.76648,93.6905028 253.024581,94.2067039 253.540782,94.3787709 L253.97095,94.550838 C256.207821,95.2391061 257.928492,96.5296089 259.132961,98.2502793 L259.132961,98.3363128 L259.132961,130.856983 C259.132961,132.319553 259.993296,133.179888 261.455866,133.179888 L274.360894,133.179888 L274.532961,133.179888 C275.909497,133.093855 276.683799,132.23352 276.683799,130.856983 L276.683799,97.9921788 L276.511732,98.2502793 C277.888268,96.4435754 279.694972,95.2391061 282.017877,94.4648045 L282.103911,94.3787709 C282.620112,94.1206704 282.878212,93.7765363 282.878212,93.1743017 C282.878212,92.4860335 282.448045,92.0558659 281.931844,91.8837989 L281.587709,91.7977654 C279.522905,91.1094972 277.888268,89.9910615 276.683799,88.4424581 L276.683799,88.3564246 L276.683799,68.9988827 L286.921788,68.9988827 C288.384358,68.9988827 289.244693,68.1385475 289.244693,66.6759777 L289.244693,55.4055866 C289.41676,53.7709497 288.470391,52.9106145 287.093855,52.9106145 Z M249.067039,54.6312849 L287.007821,54.6312849 C287.524022,54.6312849 287.610056,54.7173184 287.610056,55.2335196 L287.610056,66.5039106 C287.610056,67.0201117 287.524022,67.1061453 287.093855,67.1061453 L275.049162,67.1061453 L275.049162,88.7005587 L275.221229,88.9586592 L275.393296,89.2167598 C276.769832,90.9374302 278.490503,92.1418994 280.555307,92.9162011 L280.555307,92.9162011 C278.318436,93.7765363 276.597765,95.1530726 275.221229,96.9597765 L275.049162,97.2178771 L275.049162,130.684916 C275.049162,131.201117 274.963128,131.287151 274.446927,131.287151 L261.541899,131.287151 C261.111732,131.287151 260.939665,131.201117 260.939665,130.77095 L260.939665,97.6480447 L260.767598,97.4759777 L260.595531,97.2178771 C259.391061,95.3251397 257.584358,93.9486034 255.43352,93.0882682 L255.175419,93.0022346 L255.43352,92.9162011 C257.756425,91.9698324 259.563128,90.5072626 260.767598,88.4424581 L260.853631,88.2703911 L260.853631,67.1921788 L248.981006,67.1921788 C248.464804,67.1921788 248.378771,67.1061453 248.378771,66.6759777 L248.378771,55.3195531 C248.464804,54.7173184 248.550838,54.6312849 249.067039,54.6312849 L249.067039,54.6312849 Z" fill="#15D1EA"></path>
                        <path d="M50.1575419,35.0156425 L50.1575419,8.3452514 L57.3843575,8.3452514 L57.3843575,35.0156425 L50.1575419,35.0156425 Z M78.5486034,35.0156425 L73.1284916,15.7441341 L72.9564246,15.7441341 C73.2145251,19.0134078 73.3005587,21.5083799 73.3005587,23.4011173 L73.3005587,35.0156425 L66.9340782,35.0156425 L66.9340782,8.3452514 L76.4837989,8.3452514 L81.9899441,27.2726257 L82.1620112,27.2726257 L87.5821229,8.3452514 L97.2178771,8.3452514 L97.2178771,35.0156425 L90.5932961,35.0156425 L90.5932961,23.3150838 C90.5932961,22.7128492 90.5932961,22.024581 90.6793296,21.2502793 C90.7653631,20.4759777 90.7653631,18.6692737 90.9374302,15.8301676 L90.7653631,15.8301676 L85.4312849,35.101676 C85.4312849,35.0156425 78.5486034,35.0156425 78.5486034,35.0156425 Z M122.511732,35.0156425 L106.681564,35.0156425 L106.681564,8.3452514 L122.511732,8.3452514 L122.511732,14.1094972 L113.90838,14.1094972 L113.90838,18.3251397 L121.909497,18.3251397 L121.909497,24.0893855 L113.90838,24.0893855 L113.90838,29.1653631 L122.511732,29.1653631 L122.511732,35.0156425 Z M138.169832,25.3798883 L138.169832,35.101676 L130.943017,35.101676 L130.943017,8.43128492 L139.718436,8.43128492 C146.945251,8.43128492 150.558659,11.098324 150.558659,16.2603352 C150.558659,19.3575419 149.096089,21.6804469 146.084916,23.4871508 L153.827933,35.101676 L145.654749,35.101676 L139.976536,25.3798883 L138.169832,25.3798883 L138.169832,25.3798883 Z M138.169832,19.9597765 L139.546369,19.9597765 C142.041341,19.9597765 143.331844,18.8413408 143.331844,16.6044693 C143.331844,14.7977654 142.127374,13.8513966 139.632402,13.8513966 L138.169832,13.8513966 C138.083799,13.8513966 138.169832,19.9597765 138.169832,19.9597765 Z M177.401117,26.9284916 C177.401117,28.5631285 176.97095,30.0256983 176.110615,31.3162011 C175.250279,32.6067039 174.131844,33.5530726 172.497207,34.3273743 C170.86257,35.0156425 169.055866,35.4458101 166.991061,35.4458101 C165.184358,35.4458101 163.721788,35.273743 162.517318,35.101676 C161.312849,34.8435754 160.10838,34.4134078 158.731844,33.8111732 L158.731844,27.3586592 C160.10838,28.0469274 161.57095,28.649162 163.03352,28.9932961 C164.496089,29.3374302 165.872626,29.5955307 167.163128,29.5955307 C168.281564,29.5955307 168.969832,29.4234637 169.486034,28.9932961 C170.002235,28.649162 170.260335,28.1329609 170.260335,27.5307263 C170.260335,27.1865922 170.174302,26.8424581 170.002235,26.5843575 C169.830168,26.326257 169.486034,26.0681564 169.055866,25.7240223 C168.625698,25.4659218 167.421229,24.8636872 165.528492,24.003352 C163.807821,23.2290503 162.431285,22.4547486 161.656983,21.6804469 C160.796648,20.9061453 160.194413,20.0458101 159.764246,19.0994413 C159.334078,18.1530726 159.162011,16.9486034 159.162011,15.6581006 C159.162011,13.249162 160.022346,11.2703911 161.82905,9.89385475 C163.635754,8.51731844 166.044693,7.82905028 169.227933,7.82905028 C171.981006,7.82905028 174.734078,8.43128492 177.659218,9.72178771 L175.422346,15.3139665 C172.927374,14.1955307 170.776536,13.5932961 168.969832,13.5932961 C168.023464,13.5932961 167.335196,13.7653631 166.991061,14.0234637 C166.560894,14.3675978 166.388827,14.7977654 166.388827,15.227933 C166.388827,15.7441341 166.646927,16.1743017 167.163128,16.6044693 C167.67933,17.0346369 169.141899,17.8089385 171.550838,18.8413408 C173.873743,19.873743 175.422346,20.9921788 176.368715,22.196648 C176.884916,23.6592179 177.401117,25.1217877 177.401117,26.9284916 L177.401117,26.9284916 Z M201.490503,35.0156425 L200.2,30.0256983 L191.510615,30.0256983 L190.134078,35.0156425 L182.218994,35.0156425 L190.90838,8.25921788 L200.458101,8.25921788 L209.23352,35.0156425 L201.490503,35.0156425 L201.490503,35.0156425 Z M199.167598,6.28044693 C198.651397,6.28044693 198.049162,6.19441341 197.532961,6.02234637 C197.01676,5.85027933 196.414525,5.67821229 195.898324,5.42011173 C195.382123,5.16201117 194.865922,4.98994413 194.349721,4.81787709 C193.83352,4.64581006 193.403352,4.55977654 192.887151,4.55977654 C192.198883,4.55977654 191.768715,5.16201117 191.596648,6.36648045 L188.327374,6.36648045 C188.499441,4.21564246 188.929609,2.66703911 189.617877,1.63463687 C190.392179,0.602234637 191.424581,0.0860335196 192.887151,0.0860335196 C193.317318,0.0860335196 193.83352,0.172067039 194.349721,0.344134078 C194.865922,0.516201117 195.382123,0.688268156 195.984358,0.946368715 C196.586592,1.20446927 197.102793,1.37653631 197.618994,1.54860335 C198.135196,1.72067039 198.651397,1.80670391 199.081564,1.80670391 C199.425698,1.80670391 199.683799,1.63463687 199.941899,1.37653631 C200.113966,1.11843575 200.286034,0.602234637 200.372067,0 L203.727374,0 C203.555307,2.06480447 203.12514,3.61340782 202.350838,4.64581006 C201.576536,5.76424581 200.544134,6.28044693 199.167598,6.28044693 Z M198.73743,24.0893855 L197.618994,19.701676 C197.360894,18.7553073 197.01676,17.4648045 196.672626,15.9162011 C196.328492,14.3675978 196.070391,13.249162 195.898324,12.5608939 C195.726257,13.1631285 195.55419,14.1955307 195.210056,15.6581006 C194.865922,17.1206704 194.177654,19.873743 193.059218,24.0893855 L198.73743,24.0893855 L198.73743,24.0893855 Z M240.979888,21.5944134 C240.979888,26.0681564 239.861453,29.5094972 237.710615,31.8324022 C235.473743,34.1553073 232.290503,35.273743 228.07486,35.273743 C223.859218,35.273743 220.675978,34.0692737 218.439106,31.7463687 C216.202235,29.4234637 215.083799,25.9821229 215.083799,21.5083799 C215.083799,17.1206704 216.202235,13.6793296 218.439106,11.3564246 C220.675978,9.03351955 223.859218,7.9150838 228.07486,7.9150838 C232.290503,7.9150838 235.473743,9.11955307 237.710615,11.3564246 C239.861453,13.7653631 240.979888,17.1206704 240.979888,21.5944134 L240.979888,21.5944134 Z M222.654749,21.5944134 C222.654749,26.7564246 224.461453,29.3374302 228.07486,29.3374302 C229.881564,29.3374302 231.258101,28.7351955 232.204469,27.4446927 C233.064804,26.1541899 233.494972,24.2614525 233.494972,21.5944134 C233.494972,18.9273743 233.064804,16.9486034 232.118436,15.7441341 C231.258101,14.4536313 229.881564,13.8513966 228.160894,13.8513966 C224.461453,13.8513966 222.654749,16.4324022 222.654749,21.5944134 Z" fill="#FFFFFF"></path>
                    </g>
                </g>
                <g id="Group" transform="translate(40.435754, 423.284916)" fill="#FFFFFF">
                    <polygon id="Path" points="53.7709497 36.3921788 96.6156425 36.3921788 96.6156425 39.747486 57.6424581 39.747486 57.6424581 65.2134078 94.1206704 65.2134078 94.1206704 68.5687151 57.6424581 68.5687151 57.6424581 96.6156425 97.0458101 96.6156425 97.0458101 99.9709497 53.7709497 99.9709497"></polygon>
                    <polygon id="Path" points="100.487151 36.3921788 104.702793 36.3921788 125.092737 64.3530726 145.396648 36.3921788 173.443575 0.774301676 127.587709 67.3642458 151.332961 99.9709497 146.687151 99.9709497 125.092737 70.2893855 103.412291 99.9709497 98.7664804 99.9709497 122.511732 67.3642458"></polygon>
                    <polygon id="Path" points="153.053631 39.747486 153.053631 36.3921788 201.404469 36.3921788 201.404469 39.747486 179.379888 39.747486 179.379888 99.9709497 175.078212 99.9709497 175.078212 39.747486"></polygon>
                    <polygon id="Path" points="0.344134078 36.3921788 4.98994413 36.3921788 72.8703911 137.309497 44.9094972 99.9709497 4.64581006 41.0379888 4.21564246 99.9709497 0.344134078 99.9709497"></polygon>
                    <path d="M200.974302,95.7553073 C200.113966,95.7553073 199.683799,95.3251397 199.683799,94.4648045 C199.683799,93.6044693 200.113966,93.1743017 200.974302,93.1743017 C201.834637,93.1743017 202.264804,93.6044693 202.264804,94.4648045 C202.694972,95.3251397 201.834637,95.7553073 200.974302,95.7553073 L200.974302,95.7553073 Z" id="Path"></path>
                    <path d="M205.189944,91.9698324 L207.340782,91.9698324 C207.340782,93.2603352 208.201117,93.6905028 209.49162,93.6905028 C210.782123,93.6905028 211.642458,92.8301676 211.642458,91.1094972 L211.642458,81.3877095 L213.793296,81.3877095 L213.793296,91.1094972 C213.793296,94.1206704 212.072626,95.3251397 209.577654,95.3251397 C206.910615,95.7553073 205.189944,94.4648045 205.189944,91.9698324 L205.189944,91.9698324 Z" id="Path"></path>
                    <path d="M216.288268,91.9698324 L218.439106,91.9698324 C218.439106,93.2603352 219.729609,94.1206704 221.794413,94.1206704 C223.515084,94.1206704 224.805587,93.2603352 224.805587,91.9698324 C224.805587,91.1094972 223.945251,90.249162 222.224581,89.8189944 L220.503911,89.3888268 C217.922905,88.9586592 216.718436,87.6681564 216.718436,85.603352 C216.718436,83.0223464 218.869274,81.3877095 221.794413,81.3877095 C224.805587,81.3877095 226.440223,83.1083799 226.870391,85.1731844 L224.719553,85.1731844 C224.719553,83.8826816 223.42905,83.0223464 221.70838,83.0223464 C219.987709,83.0223464 218.697207,83.8826816 218.697207,85.1731844 C218.697207,86.0335196 219.557542,86.8938547 221.278212,87.3240223 L222.998883,87.7541899 C226.010056,88.6145251 226.784358,89.4748603 226.784358,91.5396648 C226.784358,94.1206704 224.63352,95.7553073 221.70838,95.7553073 C218.353073,95.7553073 216.288268,94.4648045 216.288268,91.9698324 L216.288268,91.9698324 Z" id="Path"></path>
                </g>
            </g>
        </g>
    </g>
</svg>